# xmcd
#
# Track frame offsets:
#	150
#	18312
#	35172
#	48710
#	67235
#	84619
#	106231
#	122583
#	140910
#	156540
#	174702
#	191562
#	205100
#	223625
#	241009
#	262621
#	278973
#	297300
#
# Disc length: 4172 seconds
#
# Revision: 1
# Processed by: cddbd v1.5.1PL0 Copyright (c) Steve Scherf et al.
# Submitted via: audiograbber 1.83.01
#
DISCID=18104a12
DTITLE=Varrious - PHMN0408
DYEAR=2004
DGENRE=
TTITLE0=Kenny Chesney - Go Back
TTITLE1=Scotty Emmerick - Watch, The
TTITLE2=Jimmy Buffet/ Clint Black - Hey Good Lookin'
TTITLE3=Kellie Coffey - Dance With My Father
TTITLE4=Big and Rich - Save A Horse (Ride A Cowboy)
TTITLE5=Tim McGraw - Live Like You Were Dyin'
TTITLE6=Carolyn Dawn Johnson - Die Of A Broken Heart
TTITLE7=Sara Evans - Suds In The Bucket
TTITLE8=Gretchen Wilson - Here For The Party
TTITLE9=Kenny Chesney - Go Back (vocal)
TTITLE10=Scotty Emmerick - Watch, The (vocal)
TTITLE11=Jimmy Buffet/ Clint Black - Hey Good Lookin' (vocal)
TTITLE12=Kellie Coffey - Dance With My Father (vocal)
TTITLE13=Big and Rech - Save A Horse (Ride A Cowboy) (vocal)
TTITLE14=Tim McGraw - Live Like You Were Dyin' (vocal)
TTITLE15=Carolyn Dawn Johnson - Die Of A Broken heart (vocal)
TTITLE16=Sara Evans - Suds In The Bucket (vocal)
TTITLE17=Gretchen Wilson - here For The party (vocal)
EXTD=
EXTT0=
EXTT1=
EXTT2=
EXTT3=
EXTT4=
EXTT5=
EXTT6=
EXTT7=
EXTT8=
EXTT9=
EXTT10=
EXTT11=
EXTT12=
EXTT13=
EXTT14=
EXTT15=
EXTT16=
EXTT17=
PLAYORDER=
